<svg width="24" height="24" fill="none" xmlns="http://www.w3.org/2000/svg"><path d="M12 5a.965.965 0 0 1-.712-.288A.965.965 0 0 1 11 4V2c0-.283.096-.521.288-.713A.967.967 0 0 1 12 1a.97.97 0 0 1 .713.287A.97.97 0 0 1 13 2v2c0 .283-.096.52-.287.712A.968.968 0 0 1 12 5zm4.95 2.05a.934.934 0 0 1-.275-.688c0-.275.092-.512.275-.712l1.4-1.425c.2-.2.437-.3.712-.3.275 0 .513.1.713.3a.948.948 0 0 1 .275.7.948.948 0 0 1-.275.7L18.35 7.05a.948.948 0 0 1-.7.275.948.948 0 0 1-.7-.275zM20 13a.965.965 0 0 1-.712-.288A.965.965 0 0 1 19 12c0-.283.096-.521.288-.713A.967.967 0 0 1 20 11h2c.283 0 .52.096.712.287.192.192.288.43.288.713s-.096.52-.288.712A.965.965 0 0 1 22 13h-2zm-8 10a.965.965 0 0 1-.712-.288A.965.965 0 0 1 11 22v-2c0-.283.096-.52.288-.712A.965.965 0 0 1 12 19c.283 0 .521.096.713.288A.967.967 0 0 1 13 20v2c0 .283-.096.52-.287.712A.968.968 0 0 1 12 23zM5.65 7.05l-1.425-1.4c-.2-.2-.3-.442-.3-.725s.1-.517.3-.7a.948.948 0 0 1 .7-.275c.283 0 .517.092.7.275L7.05 5.65a.948.948 0 0 1 .275.7.948.948 0 0 1-.275.7c-.2.183-.433.275-.7.275-.267 0-.5-.092-.7-.275zm12.7 12.725-1.4-1.425a1.018 1.018 0 0 1-.275-.712c0-.275.092-.505.275-.688a.934.934 0 0 1 .688-.275c.275 0 .512.092.712.275l1.425 1.4c.2.183.296.417.287.7a1.083 1.083 0 0 1-.287.725c-.2.2-.442.3-.725.3a.908.908 0 0 1-.7-.3zM2 13a.965.965 0 0 1-.712-.288A.965.965 0 0 1 1 12c0-.283.096-.521.288-.713A.967.967 0 0 1 2 11h2a.97.97 0 0 1 .713.287A.97.97 0 0 1 5 12c0 .283-.096.52-.287.712A.968.968 0 0 1 4 13H2zm2.225 6.775a.948.948 0 0 1-.275-.7c0-.283.092-.517.275-.7L5.65 16.95a.934.934 0 0 1 .688-.275c.275 0 .512.092.712.275.2.2.3.438.3.713 0 .275-.1.512-.3.712l-1.4 1.4c-.2.2-.442.3-.725.3a.908.908 0 0 1-.7-.3zM12 18c-1.667 0-3.083-.583-4.25-1.75C6.583 15.083 6 13.667 6 12c0-1.667.583-3.083 1.75-4.25C8.917 6.583 10.333 6 12 6c1.667 0 3.083.583 4.25 1.75C17.417 8.917 18 10.333 18 12c0 1.667-.583 3.083-1.75 4.25C15.083 17.417 13.667 18 12 18zm0-2c1.1 0 2.042-.392 2.825-1.175C15.608 14.042 16 13.1 16 12s-.392-2.042-1.175-2.825C14.042 8.392 13.1 8 12 8s-2.042.392-2.825 1.175C8.392 9.958 8 10.9 8 12s.392 2.042 1.175 2.825C9.958 15.608 10.9 16 12 16zm0 0c-1.1 0-2.042-.392-2.825-1.175C8.392 14.042 8 13.1 8 12s.392-2.042 1.175-2.825C9.958 8.392 10.9 8 12 8s2.042.392 2.825 1.175C15.608 9.958 16 10.9 16 12s-.392 2.042-1.175 2.825C14.042 15.608 13.1 16 12 16z" fill="#9A9B9B"/></svg>